<svg width="512" height="512" viewBox="0 0 512 512" xmlns="http://www.w3.org/2000/svg">
  <!-- Keyboard Key Shape (Rounded Square) - Outline -->
  <rect x="64" y="64" width="384" height="384" rx="32" ry="32" fill="none" stroke="#3A7BFF" stroke-width="24"/>
  
  <!-- Neural Network Nodes -->
  <g transform="translate(256, 256)">
    <!-- Layer 1 Nodes -->
    <circle cx="-120" cy="-60" r="16" fill="none" stroke="#00C7B7" stroke-width="4"/>
    <circle cx="-120" cy="0" r="16" fill="none" stroke="#00C7B7" stroke-width="4"/>
    <circle cx="-120" cy="60" r="16" fill="none" stroke="#00C7B7" stroke-width="4"/>
    
    <!-- Layer 2 Nodes -->
    <circle cx="0" cy="-80" r="20" fill="none" stroke="#3A7BFF" stroke-width="5"/>
    <circle cx="0" cy="0" r="24" fill="none" stroke="#3A7BFF" stroke-width="6"/>
    <circle cx="0" cy="80" r="20" fill="none" stroke="#3A7BFF" stroke-width="5"/>
    
    <!-- Layer 3 Nodes -->
    <circle cx="120" cy="-60" r="16" fill="none" stroke="#00C7B7" stroke-width="4"/>
    <circle cx="120" cy="0" r="16" fill="none" stroke="#00C7B7" stroke-width="4"/>
    <circle cx="120" cy="60" r="16" fill="none" stroke="#00C7B7" stroke-width="4"/>
    
    <!-- Connections -->
    <line x1="-104" y1="-60" x2="-20" y2="-80" stroke="#3A7BFF" stroke-width="2" opacity="0.5"/>
    <line x1="-104" y1="0" x2="-20" y2="0" stroke="#3A7BFF" stroke-width="2" opacity="0.5"/>
    <line x1="-104" y1="60" x2="-20" y2="80" stroke="#3A7BFF" stroke-width="2" opacity="0.5"/>
    <line x1="20" y1="-80" x2="104" y2="-60" stroke="#3A7BFF" stroke-width="2" opacity="0.5"/>
    <line x1="20" y1="0" x2="104" y2="0" stroke="#3A7BFF" stroke-width="2" opacity="0.5"/>
    <line x1="20" y1="80" x2="104" y2="60" stroke="#3A7BFF" stroke-width="2" opacity="0.5"/>
  </g>
</svg>

